PathFileType	4	(X/Y/Z)	pose2sim_tools_200-690.trc
DataRate	CameraRate	NumFrames	NumMarkers	Units	OrigDataRate	OrigDataStartFrame	OrigNumFrames
29	29	9	22	m	29	506	690
Frame#	Time	Hip			RHip			RKnee			RAnkle			RBigToe			RSmallToe			RHeel			LHip			LKnee			LAnkle			LBigToe			LSmallToe			LHeel			Neck			Head			Nose			RShoulder			RElbow			RWrist			LShoulder			LElbow			LWrist			
		X1	Y1	Z1	X2	Y2	Z2	X3	Y3	Z3	X4	Y4	Z4	X5	Y5	Z5	X6	Y6	Z6	X7	Y7	Z7	X8	Y8	Z8	X9	Y9	Z9	X10	Y10	Z10	X11	Y11	Z11	X12	Y12	Z12	X13	Y13	Z13	X14	Y14	Z14	X15	Y15	Z15	X16	Y16	Z16	X17	Y17	Z17	X18	Y18	Z18	X19	Y19	Z19	X20	Y20	Z20	X21	Y21	Z21	X22	Y22	Z22	
506	17.448275862068964	-6.43527420902457	0.5268453871908226	-0.0012998743953452335	-6.447249540436251	0.5273514326502721	0.07573974925897412	-6.59449174400175	0.1857606286485936	0.01358194315488392	-6.6578951770955	-0.1453616872429741	-0.04160136937898429	-6.500440380735311	-0.2282057811065774	-0.03315591946815688	-6.608595675915728	-0.2318773805181031	-0.005414371403463767	-6.655942964899163	-0.21557986737500334	-0.05731563849022139	-6.398009117973772	0.5219489852272052	-0.07836000932796844	-6.189406047812644	0.22251347297183927	-0.04283974714082126	-6.094680378120226	-0.13097302683644466	-0.048072550579505206	-5.924047905986075	-0.19352991839576686	0.013821808377466037	-5.902524750347017	-0.1936497713819963	-0.03131705310341364	-6.180663754807003	-0.1959208673232401	-0.057683080717857764	-6.407834944456541	1.0222409982271354	-0.08357704229981006	-6.295362959662949	1.256976997201789	-0.13388506768492356	-6.214086772685457	1.0675280001971958	-0.12288483037538374	-6.467965454369034	1.000484178515211	0.08120047250530661	-6.530096051616911	0.8159820330117233	0.20817187216927424	-6.369759188328339	0.6235484876787697	0.2566897213219404	-6.443861080637774	0.9020890541056626	-0.20003256020398924	-6.467896347138985	0.6657987317069146	-0.25455271248236133	-6.467770267482856	0.4373384374046556	-0.3050994580140377
507	17.482758620689655	-6.391254350881109	0.5263713501246391	0.0066313415763853386	-6.411936179270701	0.5308483468673358	0.08203809509625538	-6.573839907778169	0.1860612675749477	0.017911171748008044	-6.664311708733588	-0.14941258410479022	-0.04543600111181314	-6.481551547374715	-0.23549564883590474	-0.028925660395158752	-6.613272510668475	-0.24226134299848753	-0.004762998460003449	-6.662822539221075	-0.2181407660849014	-0.06515187231482203	-6.380341354560833	0.5235540882627243	-0.07031346271342998	-6.169668253066627	0.21706051750579364	-0.03452661889605265	-6.043036323677599	-0.13552474104829026	-0.03854859121173237	-5.85989167813154	-0.19735269607432815	0.021460557515079536	-5.8301032608917405	-0.19688851444346403	-0.025751508141358757	-6.117823624679587	-0.20401271828886341	-0.046308500518046955	-6.366572694918804	1.0133537147506253	-0.0873988589792546	-6.244193958251273	1.2408284414381752	-0.14724553589557418	-6.152159405681337	1.0564416006109354	-0.13041973692092604	-6.432585981940491	1.0015070159211574	0.07570785347263498	-6.489150564122797	0.8241991958459695	0.21461579464557914	-6.338292655918259	0.6352920006306813	0.2656093098536681	-6.395624332042577	0.8907416017848637	-0.1943260435469096	-6.445614494027872	0.65442440737464	-0.2452068383582591	-6.424650514033513	0.4232042569985623	-0.2917872070682146
508	17.517241379310345	-6.373517942199264	0.5183313486356276	0.01441468881419825	-6.403596950156875	0.518710085638381	0.08828764758951477	-6.568776825785601	0.17883699954379106	0.015859379714789592	-6.674105992288263	-0.15655436725158095	-0.04578183006552215	-6.501540822838546	-0.2391811345395908	-0.022863383523930997	-6.621585051414502	-0.24172684829583496	0.0030180314016726175	-6.685856752569667	-0.21624260673492415	-0.0635473723619911	-6.353861830844323	0.5134400013525141	-0.06474540695511713	-6.109088030864672	0.21200563829237662	-0.027436872741454014	-6.015777829211404	-0.14350100569299976	-0.03275147362160534	-5.831306200972829	-0.20833657769030137	0.027210429375848916	-5.8135323996576895	-0.20778147690869198	-0.018004159279938776	-6.11354226570368	-0.20909238318826495	-0.04433066707014883	-6.351928676399358	1.0083352414002165	-0.08768694873183194	-6.2196687386804435	1.2225908420417115	-0.15317762763684986	-6.094758240976664	1.042961165512547	-0.14616802982935614	-6.389420916855661	0.9958115309796285	0.07502924927421953	-6.4402844231826695	0.8263543057002416	0.22157547172349354	-6.299051573601723	0.6410320676790389	0.27881599260888146	-6.396273181029106	0.8829930150509075	-0.19295532742315474	-6.401675882811683	0.6450176460028112	-0.23583413897198865	-6.406145297922348	0.4132800683693568	-0.2787465870479001
509	17.551724137931036	-6.323319351504101	0.5189174697467425	0.018008519202392555	-6.361556380502512	0.5192779717999859	0.09406776292836269	-6.542072164653813	0.18062517501585956	0.019647450564368178	-6.663247907230086	-0.15479533397953393	-0.048161972985944566	-6.58646174365074	-0.2451751464862447	-0.03172628779909402	-6.595952343333191	-0.2392262291227063	0.006729735860588384	-6.72593289214703	-0.21215891445583743	-0.07366625369969056	-6.306946576498798	0.51197623976952	-0.06110319999986114	-6.0727731392519875	0.21194922847595535	-0.0215829612552321	-6.012752950386151	-0.1445571720932238	-0.028387382895068643	-5.825254287424562	-0.20778417069310737	0.028304912374602465	-5.809175430329274	-0.21163238324905623	-0.020763956190547654	-6.089255141286948	-0.20811691685157765	-0.04032835535956666	-6.3062274976849935	1.0000121682427516	-0.0918356455413105	-6.176898482570256	1.2123453342880144	-0.16110034621144662	-6.08476552421006	1.035229354535681	-0.14415508531782292	-6.337486817576807	0.9915088516095765	0.07074141574860611	-6.393452202948236	0.8279910802491695	0.2233041162200806	-6.247992380011847	0.6484998057481557	0.29221499293265596	-6.365815157020492	0.8734723122597694	-0.19134995611664346	-6.372943158312681	0.6335023324572769	-0.2303680788740884	-6.367830582487899	0.40561843588808244	-0.26738869507980967
510	17.586206896551722	-6.2905095417575305	0.5146313547367496	0.021387112504722642	-6.309491145007173	0.5170897621364255	0.09588095134112357	-6.5166510253144185	0.1768187633056487	0.021802089127076946	-6.667870365269451	-0.1548432957466436	-0.046454168886381195	-6.568720013214238	-0.2449872829964971	-0.034655089436900474	-6.604911665504423	-0.23995563278850002	0.0036645568298304754	-6.703681602228803	-0.21195584462563247	-0.07193570358963082	-6.281325499033013	0.5060375222003461	-0.05843744481815528	-6.03143742253287	0.2086080723547383	-0.016305901787106704	-6.014413646155996	-0.14600580404226168	-0.02624696344855541	-5.822282296694359	-0.20408880510060756	0.027342908715366366	-5.793531651924059	-0.20292588586462082	-0.019581961511254208	-6.089598395154752	-0.20660730569133168	-0.0342456696203121	-6.2676829321181895	0.9948716883816012	-0.09096582803443577	-6.1370170561479815	1.205928153115832	-0.16330575641873446	-6.069274759051447	1.0292724304035776	-0.14277786870794176	-6.307888684962234	0.9909481632212594	0.06937223986609431	-6.347363360366295	0.8287618839609179	0.22715825264889034	-6.219167016956301	0.6466078333560343	0.3012357611147462	-6.320347364400768	0.8683846757654298	-0.18878880140929993	-6.336664842054585	0.6309882034868117	-0.2213055406151434	-6.329910647565365	0.40581723927823854	-0.25382345091188174
511	17.620689655172413	-6.256184315978509	0.5233399122128649	0.018095439616294718	-6.27672869257171	0.5257429714016227	0.09625253517166318	-6.468481950055414	0.1854503180088964	0.024310475521539802	-6.640382720348915	-0.14272289612959285	-0.0470823620711131	-6.565948552698911	-0.24075188303474554	-0.03498528114601465	-6.56662693403742	-0.23812635627890827	0.0008400505332596683	-6.674597958479849	-0.20655243382530153	-0.07622813707992161	-6.23348722268107	0.5165398842127893	-0.05968315378511048	-6.008724412862343	0.21798584405814575	-0.01756757268484607	-6.002091330365585	-0.14615975086127644	-0.021525992388097447	-5.801759872765385	-0.20565737042565232	0.025960446057072713	-5.781861852971913	-0.20774570916808285	-0.018791381188211245	-6.097879090919911	-0.2135583455269419	-0.03271691244175459	-6.242027968311003	1.0021645749194468	-0.08798432177808245	-6.0880310344832	1.2118947932491506	-0.17180208441134656	-6.064351434883284	1.0373338217531043	-0.15114081608439944	-6.263176637847619	0.9948191824113853	0.0754850973161272	-6.306234082595818	0.8233477875353364	0.23277367060990536	-6.202792278869756	0.6431285333296196	0.31132266209488346	-6.2798489066270085	0.8744853999452156	-0.19119702094977503	-6.307042732893085	0.6304926424359405	-0.21382648939244214	-6.288630882117026	0.40695696497880524	-0.24036053833694876
512	17.655172413793103	-6.22383370805272	0.525964688322269	0.02130918523910662	-6.2442022163353395	0.5284606136048304	0.09581396782639187	-6.424273316033417	0.1919398009278144	0.029214383304013145	-6.620774770368465	-0.13684420181342474	-0.04187592026213234	-6.5461583763856	-0.23698648845358428	-0.02979079584673809	-6.546792181028598	-0.23583391185423808	0.006159732609590773	-6.667590646359821	-0.2026114477471997	-0.06905535994509582	-6.2016022285595005	0.5210456167817996	-0.056740159292578266	-5.998102601463071	0.22150108210446023	-0.018047023922081153	-6.002431055511441	-0.143841418858372	-0.023727569881388418	-5.800673438427591	-0.20744914841672032	0.02414780514620249	-5.7911446687086165	-0.20820932527034425	-0.022628848782901903	-6.087840379022161	-0.21252766630089678	-0.03321291952583564	-6.1989209164011765	1.0058761815378459	-0.08325024712305222	-6.056417590672712	1.2177488784202877	-0.1731605893831152	-6.06489283741983	1.042907845178992	-0.1579147490556225	-6.219226826890264	0.9981491593255215	0.08048998948786108	-6.2621577087590845	0.8261466298342027	0.23035018672692784	-6.1691049759481595	0.6420179807797758	0.3154552980886857	-6.259919234191113	0.8824870678767845	-0.18676814695372554	-6.287263045689564	0.6375886216545545	-0.20945623756718026	-6.257724684736733	0.41328851811532175	-0.23414398771501158
513	17.689655172413794	-6.180733221048829	0.5317126045220428	0.019634013553216822	-6.2122144151386225	0.5342786568213452	0.09647633451448434	-6.380372891978087	0.19759658763429166	0.03147703010906368	-6.600818381697378	-0.1324560104535508	-0.03938631454272775	-6.501928238062363	-0.23551867048214636	-0.023513847877263287	-6.502670662776568	-0.2317310205187618	0.012394810109500174	-6.647714898064259	-0.19694648238703819	-0.06662292398662764	-6.169672938802273	0.5250056144688151	-0.05637843544040426	-5.987961312975838	0.21794707690386908	-0.020950387649671207	-6.003144861601128	-0.14532015316428332	-0.024651552031804656	-5.790192520543157	-0.20804018799908508	0.025038244145785343	-5.780476009470716	-0.20901006970035887	-0.021837789622903756	-6.100275599277809	-0.21268995549264316	-0.03602896204005359	-6.1784581234808655	1.0169248270549684	-0.08100569766650535	-6.014521625716292	1.2270182433313694	-0.16746475483465836	-6.022603242960979	1.049010261598471	-0.15597184418075002	-6.18697031473322	1.001134493430019	0.08505705543028524	-6.218073716761043	0.8242844892534416	0.23279750973376306	-6.125298537504527	0.6401484193410695	0.31797859971042436	-6.228392293523135	0.8931009418990697	-0.18283569043929634	-6.244266569767026	0.6474169042431147	-0.2075002099145777	-6.226313240060273	0.4187216892704619	-0.2302642736595111
514	17.724137931034484	-6.143278041894043	0.5355991889608533	0.016904901676785433	-6.152269208530829	0.5402138692659648	0.09334459376453123	-6.319330638589652	0.20349423201531472	0.03614112936933028	-6.563094861898005	-0.11918508296984139	-0.03831488127440397	-6.476320694273094	-0.2268806371446287	-0.024350647298371872	-6.488708563785553	-0.2271301416668296	0.014161015800265908	-6.622494045343364	-0.18440423005770112	-0.06339448799530585	-6.143227372588682	0.5288278862441862	-0.06116865854444079	-5.993922055955707	0.22324310100938516	-0.026932484640361402	-6.008973663008492	-0.1432099736653989	-0.026720666405366876	-5.804831985510236	-0.2074520150131763	0.02173558280973118	-5.794971412224216	-0.208593350586703	-0.025636449774078637	-6.095563582232055	-0.2122213156674955	-0.03635303289019193	-6.140978622772608	1.0263474187420527	-0.07628548094217219	-5.977147099030307	1.2385100328510714	-0.16701814087438174	-5.9743770253510595	1.0597397892732752	-0.15352090772930216	-6.160878904457688	1.008988134321665	0.08476629859747949	-6.203494943596101	0.8240733036171903	0.2317278994249457	-6.099194735069985	0.6370580633605459	0.31881699872362307	-6.201875514683318	0.9028519250922048	-0.18427115106219055	-6.217818009745411	0.6578844690262149	-0.20911561075357313	-6.199851736547309	0.43199285435925416	-0.23204283550714502
